<svg width="179" height="157" viewBox="0 0 179 157" fill="none" xmlns="http://www.w3.org/2000/svg">
<path d="M93.8654 16.0196C113.756 -3.15162 145.415 -2.57505 164.578 17.3068C183.742 37.1886 183.153 68.847 163.264 88.0187L94.8829 153.93C90.9067 157.762 84.576 157.646 80.7433 153.67L66.3605 138.748C67.0389 136.786 68.2427 135.508 70.1857 133.999L71.2941 133.181C72.6955 132.143 74.1062 131.122 75.5362 130.125C76.7901 129.298 77.9061 128.536 78.9796 127.487C79.8897 125.656 79.8897 125.656 78.7609 121.318C78.4722 120.271 78.2008 119.228 77.9679 118.164C77.4047 115.415 77.1047 112.298 75.8468 109.806L75.4161 109.061C76.1358 108.393 76.1356 108.392 76.7804 106.831L77.3351 105.354C80.7084 105.084 83.9599 104.43 87.2335 103.472C94.1951 100.967 100.485 96.3376 104.135 89.7794C104.781 88.6147 105.438 87.482 106.145 86.3497C107.02 85.2951 107.02 85.295 108.27 85.4073C113.54 85.6294 119.327 85.0932 124.529 84.0011C130.381 82.5163 135.121 79.6064 138.433 74.4181C140.646 69.5184 139.807 64.5371 138.208 59.753L137.168 60.0763C135.945 63.867 134.116 66.0367 130.889 68.4718C124.557 71.7882 117.16 73.1553 110.251 72.2296L110.295 70.9708C115.641 58.7973 115.641 58.7966 126.704 49.8761L127.609 49.0577C124.15 49.0043 124.149 49.0048 111.98 59.7452L111.291 60.3556L111.315 60.1954C112.755 50.3858 114.209 40.4756 119.664 31.7999C121.582 29.1479 123.823 27.0387 127.019 26.2228L128.288 25.9669L128.009 24.9435C126.721 24.6881 125.547 24.5689 124.219 24.589L122.684 24.712C118.485 25.0028 115.429 26.7594 112.343 29.628L111.388 30.546C110.74 31.1429 110.096 31.7437 109.455 32.3478C100.878 40.9014 96.9293 56.9965 96.4581 68.4708C96.4308 69.9508 96.3886 71.3551 96.1339 72.8224C95.5485 73.8546 95.548 73.8553 94.0607 74.2784C91.5255 74.9247 89.0754 75.5868 86.6827 76.6935C78.8785 81.1096 74.9571 87.0049 71.7989 95.0997L71.4161 96.089C70.7764 95.3999 70.7759 95.4001 69.6476 95.0206L68.1788 94.6105L66.5529 94.1525L64.8165 93.673C60.2335 92.3925 55.645 91.1382 51.0187 89.9991C50.3907 91.1893 49.8756 92.3001 49.507 93.587C48.3196 98.7338 47.5105 103.558 43.2872 107.162C42.2537 108.042 41.5254 108.804 40.6593 109.882C40.5846 110.638 40.5769 111.353 40.6232 112.047L25.2237 96.0704C21.3915 92.0942 21.5078 85.7635 25.4835 81.9308L93.8654 16.0196ZM2.84387 66.4376C4.80001 64.4885 7.96606 64.4942 9.91516 66.4503L18.3849 74.9513C20.3338 76.9074 20.3282 80.0725 18.3722 82.0216C16.416 83.9707 13.25 83.965 11.3009 82.0089L2.83117 73.5089C0.882117 71.5528 0.887847 68.3867 2.84387 66.4376ZM1.47082 43.8077C3.42696 41.8587 6.59302 41.8643 8.54211 43.8204L29.0109 64.3634C30.9599 66.3195 30.9543 69.4856 28.9982 71.4347C27.042 73.3837 23.876 73.3781 21.9269 71.422L1.45812 50.879C-0.490971 48.9229 -0.485322 45.7568 1.47082 43.8077ZM5.74426 26.8448C7.70034 24.8959 10.8655 24.9016 12.8146 26.8575L39.6368 53.7765C41.5854 55.7325 41.5798 58.8978 39.6241 60.8468C37.668 62.7959 34.5019 62.7902 32.5529 60.8341L5.73156 33.9161C3.78247 31.96 3.78812 28.7939 5.74426 26.8448ZM14.2521 14.132C16.2082 12.1829 19.3743 12.1886 21.3234 14.1446L50.2618 43.1886C52.2109 45.1447 52.2053 48.3108 50.2491 50.2599C48.2931 52.2086 45.1279 52.2029 43.1788 50.2472L14.2394 21.2032C12.2903 19.2471 12.2959 16.081 14.2521 14.132ZM26.9952 5.67004C28.9514 3.72094 32.1174 3.72659 34.0665 5.68273L60.8878 32.6007C62.8369 34.5568 62.8312 37.7229 60.8751 39.672C58.919 41.6211 55.7529 41.6154 53.8038 39.6593L26.9825 12.7413C25.0335 10.7852 25.0393 7.61915 26.9952 5.67004ZM43.9737 1.45812C45.9299 -0.490971 49.0959 -0.485322 51.045 1.47082L71.5138 22.0138C73.4628 23.9699 73.4572 27.136 71.5011 29.0851C69.545 31.034 66.3789 31.0283 64.4298 29.0724L43.9611 8.52844C42.0121 6.5723 42.0177 3.40719 43.9737 1.45812ZM66.5987 2.9132C68.5549 0.964147 71.72 0.969823 73.6691 2.9259L82.1398 11.4259C84.0888 13.382 84.0829 16.5481 82.1271 18.4972C80.171 20.4463 77.0049 20.4405 75.0558 18.4845L66.5861 9.98351C64.637 8.02737 64.6426 4.8623 66.5987 2.9132Z" fill="url(#paint0_linear_13_80)"/>
<defs>
<linearGradient id="paint0_linear_13_80" x1="103.505" y1="0.889224" x2="96.8261" y2="156.68" gradientUnits="userSpaceOnUse">
<stop stop-color="#E4C3A1"/>
<stop offset="1" stop-color="#DA818D"/>
</linearGradient>
</defs>
</svg>
